HIERARCHY
ROOT Joint1
{
	OFFSET 0.000000 0.000000 0.000000
	CHANNELS 6 Xposition Yposition Zposition Xrotation Yrotation Zrotation
	JOINT Joint2
	{
		OFFSET -0.000000 0.000000 1.456275
		CHANNELS 6 Xposition Yposition Zposition Xrotation Yrotation Zrotation
		JOINT Joint3
		{
			OFFSET -0.000000 0.000002 1.471446
			CHANNELS 6 Xposition Yposition Zposition Xrotation Yrotation Zrotation
			JOINT Joint4
			{
				OFFSET 0.625745 0.000000 0.917755
				CHANNELS 6 Xposition Yposition Zposition Xrotation Yrotation Zrotation
				JOINT Joint5
				{
					OFFSET -0.629534 0.000001 0.940221
					CHANNELS 6 Xposition Yposition Zposition Xrotation Yrotation Zrotation
					JOINT Joint6
					{
						OFFSET -0.000001 0.113772 1.960660
						CHANNELS 6 Xposition Yposition Zposition Xrotation Yrotation Zrotation
						JOINT Joint7
						{
							OFFSET -0.669733 -0.113771 0.388340
							CHANNELS 6 Xposition Yposition Zposition Xrotation Yrotation Zrotation
							End Site
							{
								OFFSET 0.005509 0.005509 0.438980
							}
						}
					}
				}
			}
		}
	}
}
MOTION
Frames: 12
Frame Time: 0.041667
0.000000 0.000000 0.000000 -0.000000 1.019410 -7.101175 -0.000000 0.000000 1.456275 -0.000000 -19.310601 0.000001 -0.000000 0.000002 1.471445 -0.000001 -1.133458 36.516247 0.625745 0.000000 0.917755 0.000012 94.917684 -0.000041 -0.629534 0.000001 0.940221 -0.000002 1.709736 -20.764542 -0.000000 0.113772 1.960661 -88.303889 69.183737 0.000001 -0.669733 -0.113771 0.388340 0.164500 3.076865 76.224788 
0.000000 0.000000 0.000000 -0.000000 1.019410 -6.894433 -0.000000 0.000000 1.456275 -0.000000 -20.059104 0.000000 -0.000000 0.000002 1.471446 -0.000001 -1.133455 35.450581 0.625744 0.000000 0.917755 -0.000008 96.086951 0.000001 -0.629534 0.000001 0.940221 0.000003 1.709736 -20.159450 -0.000002 0.113772 1.960661 -88.303896 69.789862 -0.000007 -0.669733 -0.113771 0.388341 0.148346 3.102598 77.937014 
0.000000 0.000000 0.000000 -0.000000 1.019410 -6.686572 -0.000000 0.000000 1.456275 -0.000000 -20.811651 -0.000000 -0.000000 0.000002 1.471445 -0.000001 -1.133457 34.379153 0.625745 0.000000 0.917755 -0.000004 97.262536 -0.000026 -0.629534 0.000001 0.940221 0.000002 1.709735 -19.551090 -0.000000 0.113772 1.960660 -88.303889 70.399258 -0.000004 -0.669733 -0.113771 0.388339 0.131337 3.127973 79.658536 
0.000000 0.000000 0.000000 -0.000000 1.019410 -6.477748 -0.000000 -0.000000 1.456275 0.000000 -21.567692 -0.000000 -0.000000 0.000002 1.471446 -0.000001 -1.133459 33.302756 0.625745 0.000000 0.917755 -0.000000 98.443578 -0.000018 -0.629534 0.000001 0.940221 0.000001 1.709736 -18.939903 -0.000001 0.113772 1.960661 -88.303889 71.011496 -0.000010 -0.669733 -0.113771 0.388340 0.113486 3.152940 81.388111 
0.000000 0.000000 0.000000 -0.000000 1.019410 -6.268671 -0.000000 -0.000000 1.456275 -0.000000 -22.324651 -0.000000 -0.000000 0.000002 1.471445 -0.000001 -1.133459 32.225048 0.625744 0.000000 0.917755 0.000020 99.626041 -0.000016 -0.629534 0.000001 0.940221 0.000001 1.709737 -18.327978 -0.000001 0.113772 1.960660 -88.303896 71.624471 -0.000005 -0.669733 -0.113771 0.388340 0.094864 3.177388 83.119830 
0.000000 0.000000 0.000000 -0.000000 1.019410 -6.059898 -0.000000 -0.000000 1.456275 0.000000 -23.080504 -0.000000 -0.000000 0.000002 1.471445 -0.000001 -1.133457 31.148917 0.625745 0.000000 0.917755 0.000012 100.806789 0.000002 -0.629534 0.000001 0.940221 0.000002 1.709735 -17.716946 -0.000001 0.113772 1.960661 -88.303896 72.236552 -0.000005 -0.669733 -0.113771 0.388341 0.075541 3.201228 84.849063 
0.000000 0.000000 0.000000 -0.000000 1.019410 -5.851381 -0.000000 0.000000 1.456275 0.000000 -23.835439 -0.000000 -0.000000 0.000002 1.471445 -0.000000 -1.133460 30.074091 0.625745 0.000000 0.917755 0.000005 101.986103 -0.000007 -0.629534 0.000001 0.940221 -0.000000 1.709736 -17.106656 -0.000001 0.113772 1.960661 -88.303889 72.847888 -0.000008 -0.669733 -0.113772 0.388340 0.055528 3.224447 86.576240 
0.000000 0.000000 0.000000 -0.000000 1.019410 -5.642910 -0.000000 0.000000 1.456275 0.000000 -24.590201 -0.000000 -0.000000 0.000002 1.471445 -0.000001 -1.133459 28.999515 0.625745 0.000000 0.917755 0.000006 103.165137 -0.000006 -0.629533 0.000001 0.940221 0.000001 1.709736 -16.496503 -0.000000 0.113772 1.960661 -88.303896 73.459088 -0.000011 -0.669733 -0.113771 0.388340 0.034829 3.247048 88.303076 
0.000000 0.000000 0.000000 -0.000000 1.019410 -5.434333 -0.000000 0.000000 1.456275 -0.000000 -25.345343 -0.000000 -0.000000 0.000002 1.471445 -0.000001 -1.133456 27.924392 0.625744 0.000001 0.917755 0.000008 104.344773 -0.000007 -0.629533 0.000001 0.940221 -0.000001 1.709737 -15.886047 -0.000000 0.113772 1.960661 -88.303896 74.070588 -0.000005 -0.669733 -0.113771 0.388340 0.013445 3.269025 90.030827 
0.000000 0.000000 0.000000 -0.000000 1.019410 -5.225708 -0.000000 -0.000000 1.456275 0.000000 -26.100659 -0.000000 -0.000000 0.000002 1.471446 -0.000001 -1.133457 26.849028 0.625744 0.000000 0.917755 0.000007 105.524674 0.000003 -0.629534 0.000001 0.940221 0.000002 1.709735 -15.275447 -0.000000 0.113772 1.960661 -88.303903 74.682231 -0.000006 -0.669733 -0.113771 0.388339 -0.008597 3.290356 91.759015 
0.000000 0.000000 0.000000 -0.000000 1.019410 -5.017147 -0.000000 0.000000 1.456275 -0.000000 -26.855751 -0.000000 -0.000000 0.000002 1.471446 -0.000000 -1.133459 25.773982 0.625744 0.000000 0.917755 -0.000008 106.704227 0.000003 -0.629533 0.000001 0.940221 0.000003 1.709737 -14.665033 -0.000001 0.113772 1.960660 -88.303903 75.293697 -0.000009 -0.669733 -0.113771 0.388340 -0.031267 3.311007 93.486739 
0.000000 0.000000 0.000000 -0.000000 1.019410 -4.808700 -0.000000 0.000000 1.456275 -0.000000 -27.610428 0.000000 -0.000000 0.000002 1.471445 -0.000000 -1.133459 24.699520 0.625745 0.000000 0.917755 0.000006 107.883132 -0.000003 -0.629534 0.000001 0.940221 0.000000 1.709737 -14.054950 -0.000001 0.113772 1.960661 -88.303896 75.904828 -0.000013 -0.669733 -0.113771 0.388340 -0.054539 3.330955 95.213561 
